<?xml version="1.0" encoding="iso-8859-1"?>
<!-- Generator: Adobe Illustrator 19.0.0, SVG Export Plug-In . SVG Version: 6.00 Build 0)  -->
<svg version="1.1" id="Capa_1" xmlns="http://www.w3.org/2000/svg" xmlns:xlink="http://www.w3.org/1999/xlink" x="0px" y="0px"
	 viewBox="0 0 472.613 472.613" style="enable-background:new 0 0 472.613 472.613;" xml:space="preserve">
<g>
	<g>
		<path d="M386.168,0H86.445c-5.438,0-9.846,4.409-9.846,9.846v452.92c0,3.933,2.34,7.488,5.952,9.043
			c3.612,1.556,7.803,0.813,10.66-1.89l143.096-135.354l143.095,135.354c1.865,1.764,4.299,2.693,6.768,2.693
			c1.313,0,2.638-0.263,3.892-0.803c3.612-1.555,5.952-5.111,5.952-9.043V9.846C396.014,4.409,391.605,0,386.168,0z M376.322,439.9
			L243.073,313.86c-1.898-1.795-4.333-2.693-6.766-2.693c-2.434,0-4.868,0.898-6.766,2.693L96.291,439.9V19.692h280.031V439.9z"/>
	</g>
</g>
<g>
</g>
<g>
</g>
<g>
</g>
<g>
</g>
<g>
</g>
<g>
</g>
<g>
</g>
<g>
</g>
<g>
</g>
<g>
</g>
<g>
</g>
<g>
</g>
<g>
</g>
<g>
</g>
<g>
</g>
</svg>
