<svg xmlns="http://www.w3.org/2000/svg" viewBox="-6276 -6620 25.938 24">
  <path id="Union_2" data-name="Union 2" d="M7703.6,6675.719a2.28,2.28,0,1,1,2.28,2.28A2.284,2.284,0,0,1,7703.6,6675.719Zm1.274,0a1.008,1.008,0,1,0,1.006-1.008A1.007,1.007,0,0,0,7704.87,6675.719Zm-9.276,0a2.281,2.281,0,1,1,2.28,2.28A2.285,2.285,0,0,1,7695.594,6675.719Zm1.273,0a1.008,1.008,0,1,0,1.007-1.008A1.007,1.007,0,0,0,7696.868,6675.719Zm-2.359-3.312a1.28,1.28,0,0,1-1.249-1.016l-3.082-14.957-2.8-1.214a.636.636,0,1,1,.507-1.167l2.795,1.213a1.282,1.282,0,0,1,.742.91l.4,1.946h19.835a1.276,1.276,0,0,1,1.249,1.531l-1.783,8.645a1.275,1.275,0,0,1-1.247,1.016h-15.749l.375,1.82h15.255a.637.637,0,0,1,0,1.273Zm-.639-4.365h16.012l1.781-8.647h-19.574Zm3.939-2.035a.636.636,0,1,1,0-1.271h8.132a.636.636,0,1,1,0,1.271Zm-.5-3.306a.637.637,0,0,1,0-1.273h9.125a.637.637,0,0,1,0,1.273Z" transform="translate(-13963 -13274)"/>
</svg>
