<svg xmlns="http://www.w3.org/2000/svg" viewBox="-6479 -6537 16 16">
  <defs>
    <style>
      .cls-1 {
        fill: #ed1c24;
      }
    </style>
  </defs>
  <path id="chef" class="cls-1" d="M16.967,5.83a3.725,3.725,0,0,0-3.732-3.709q-.134,0-.27.01a4.815,4.815,0,0,0-7.994,0q-.136-.01-.27-.01A3.708,3.708,0,0,0,4.168,9.5v5.126A1.379,1.379,0,0,0,5.55,16h6.835a1.379,1.379,0,0,0,1.382-1.373V9.5A3.722,3.722,0,0,0,16.967,5.83Zm-4.583,9.114H5.55a.322.322,0,0,1-.319-.317V9.5a3.688,3.688,0,0,0,1.461-.536,4.8,4.8,0,0,0,4.551,0A3.69,3.69,0,0,0,12.7,9.5v5.126A.322.322,0,0,1,12.384,14.944Zm.85-6.461a2.663,2.663,0,0,1-1.025-.2,4.746,4.746,0,0,0,1.381-2.235.531.531,0,0,0-1.024-.282,3.742,3.742,0,0,1-7.2,0,.531.531,0,0,0-1.024.282A4.746,4.746,0,0,0,5.724,8.28,2.657,2.657,0,1,1,4.7,3.177a2.726,2.726,0,0,1,.455.039.533.533,0,0,0,.553-.262,3.747,3.747,0,0,1,6.518,0,.533.533,0,0,0,.553.262,2.726,2.726,0,0,1,.455-.039,2.653,2.653,0,1,1,0,5.307Z" transform="translate(-6479.967 -6537)"/>
</svg>
