<svg xmlns="http://www.w3.org/2000/svg" viewBox="-1045 -203 20.001 20">
  <path id="Union_6" data-name="Union 6" d="M1053.149,223h-2.315a.417.417,0,1,1,0-.833h.726l-5.249-5.249h0l-.781-.78a1.82,1.82,0,0,1,0-2.568l10.039-10.04a1.821,1.821,0,0,1,2.568,0l6.333,6.333a1.816,1.816,0,0,1,0,2.567l-9.735,9.736h4.432a.417.417,0,0,1,0,.833Zm3.687-16.608a.417.417,0,0,1,0,.59l-9.641,9.641,5.258,5.258a.975.975,0,0,0,.693.286h0a.975.975,0,0,0,.693-.286l10.039-10.039a.985.985,0,0,0,0-1.39l-3.49-3.489-9.641,9.641a.417.417,0,1,1-.589-.59l9.641-9.641-2.254-2.255a.987.987,0,0,0-1.39,0l-10.039,10.039a.987.987,0,0,0,0,1.39l.486.487,9.642-9.642a.417.417,0,0,1,.589,0Zm-4.26,13.688a.418.418,0,0,1,0-.59l1.345-1.345a.417.417,0,1,1,.589.59l-1.345,1.345a.418.418,0,0,1-.589,0ZM1051.4,218.9a.415.415,0,0,1,0-.589l3.279-3.279a.417.417,0,0,1,.589.589l-3.279,3.279a.416.416,0,0,1-.589,0Zm-2.387-1.148a.418.418,0,0,1,0-.589l.177-.177a.417.417,0,0,1,.59.59l-.177.177a.418.418,0,0,1-.589,0Zm5.971-.078a.417.417,0,0,1,0-.59l.177-.176a.416.416,0,1,1,.589.589l-.176.176a.416.416,0,0,1-.589,0Zm4.741-4.741-1.178-1.179a.415.415,0,0,1,0-.589l1.768-1.769a.418.418,0,0,1,.589,0l1.178,1.179a.417.417,0,0,1,0,.59l-1.768,1.768a.418.418,0,0,1-.589,0Zm-.294-1.473.589.59,1.178-1.179-.589-.589Zm-2.209-5.45a.417.417,0,0,1,0-.59l.176-.176a.417.417,0,0,1,.589.589l-.176.177a.416.416,0,0,1-.589,0Z" transform="translate(-2090 -406)"/>
</svg>
