<svg xmlns="http://www.w3.org/2000/svg" viewBox="1597.674 -5992.305 6 6.631">
  <defs>
    <style>
      .cls-1 {
        fill: #ed1c24;
      }
    </style>
  </defs>
  <path id="Path_2519" data-name="Path 2519" class="cls-1" d="M6.09,44.919l.015,0H2.66l1.026-1.031a.532.532,0,0,0,0-.748l-.315-.315a.527.527,0,0,0-.744,0L.153,45.3a.531.531,0,0,0,0,.747L2.627,48.52a.528.528,0,0,0,.744,0l.315-.315a.522.522,0,0,0,.154-.372.506.506,0,0,0-.154-.365L2.637,46.426H6.1a.546.546,0,0,0,.534-.54v-.446A.535.535,0,0,0,6.09,44.919Z" transform="translate(1555 -5985.674) rotate(-90)"/>
</svg>
