<svg xmlns="http://www.w3.org/2000/svg" viewBox="-7116.999 -120 29.999 29.999">
  <defs>
    <style>
      .cls-1 {
        fill: #474747;
      }
    </style>
  </defs>
  <path id="Union_4" data-name="Union 4" class="cls-1" d="M7772,944a15,15,0,1,1,15,15A15,15,0,0,1,7772,944Zm1.874,0A13.125,13.125,0,1,0,7787,930.876,13.142,13.142,0,0,0,7773.875,944Zm8.792,5a1.651,1.651,0,0,1-.879-.257l4.263-4.77,1.343,1.175a.42.42,0,0,0,.548,0l1.341-1.175,4.263,4.77a1.641,1.641,0,0,1-.879.257Zm7.243-5.575,4.165-3.644a1.655,1.655,0,0,1,.26.885v6.667a1.656,1.656,0,0,1-.215.8ZM7781,947.333v-6.667a1.651,1.651,0,0,1,.261-.885l4.163,3.642-4.21,4.711A1.655,1.655,0,0,1,7781,947.333Zm.874-8.124a1.644,1.644,0,0,1,.793-.21h10a1.657,1.657,0,0,1,.795.21l-5.793,5.071Z" transform="translate(-14889 -1049)"/>
</svg>
