<svg xmlns="http://www.w3.org/2000/svg" viewBox="-6498 -6613 16 16">
  <g id="global" transform="translate(-6498 -6613)">
    <g id="Group_381" data-name="Group 381">
      <path id="Path_2517" data-name="Path 2517" d="M8,0a8,8,0,1,0,8,8A8.009,8.009,0,0,0,8,0Zm5.664,3.9a15.049,15.049,0,0,1-2.657.791A11.31,11.31,0,0,0,9.166,1.105,7,7,0,0,1,13.664,3.9Zm-3.4,6.277a16.673,16.673,0,0,0-4.529,0,10.386,10.386,0,0,1,0-4.353A16.7,16.7,0,0,0,8,6a16.684,16.684,0,0,0,2.266-.173A10.386,10.386,0,0,1,10.264,10.18Zm-.259-5.331a15.654,15.654,0,0,1-4.011,0A10.313,10.313,0,0,1,8,1.264,10.31,10.31,0,0,1,10.005,4.849ZM6.832,1.105a11.308,11.308,0,0,0-1.84,3.589A15.064,15.064,0,0,1,2.336,3.9,7,7,0,0,1,6.832,1.105ZM1,8a6.956,6.956,0,0,1,.8-3.232,16.093,16.093,0,0,0,2.946.9,11.388,11.388,0,0,0,0,4.662,15.986,15.986,0,0,0-2.947.9A6.971,6.971,0,0,1,1,8Zm1.336,4.1a15.064,15.064,0,0,1,2.656-.791,11.31,11.31,0,0,0,1.841,3.589A7,7,0,0,1,2.336,12.1Zm3.659-.946a15.646,15.646,0,0,1,4.01,0A10.326,10.326,0,0,1,8,14.736,10.31,10.31,0,0,1,5.995,11.151ZM9.166,14.9a11.31,11.31,0,0,0,1.841-3.589,15.159,15.159,0,0,1,2.657.791A7,7,0,0,1,9.166,14.9Zm2.089-4.562a11.366,11.366,0,0,0,0-4.661A16.025,16.025,0,0,0,14.2,4.767a6.956,6.956,0,0,1,0,6.466A16.127,16.127,0,0,0,11.255,10.333Z"/>
    </g>
  </g>
</svg>
