<svg xmlns="http://www.w3.org/2000/svg" viewBox="0 0 436.76 471.2"><title>Asset 1</title><g id="Layer_2" data-name="Layer 2"><g id="Capa_1" data-name="Capa 1"><path d="M226.36,27h122.9a60.58,60.58,0,0,1,60.5,60.5V383.7a60.58,60.58,0,0,1-60.5,60.5H224.36a13.5,13.5,0,1,0,0,27h124.9a87.6,87.6,0,0,0,87.5-87.5V87.5A87.6,87.6,0,0,0,349.26,0H226.36a13.5,13.5,0,0,0,0,27Z"/><path d="M4,245.1l85.8,85.8a13.51,13.51,0,0,0,19.1-19.1L46.06,249H320a13.5,13.5,0,0,0,0-27H46.06l62.8-62.8a13.55,13.55,0,0,0-9.5-23.1,13.17,13.17,0,0,0-9.5,4L4.06,225.9A13.49,13.49,0,0,0,4,245.1Z"/></g></g></svg>