<svg xmlns="http://www.w3.org/2000/svg" viewBox="-9776.668 -5469.679 67.12 23.132">
  <defs>
    <style>
      .cls-1 {
        fill: #fff;
      }
    </style>
  </defs>
  <g id="Group_383" data-name="Group 383" transform="translate(-9776.668 -5469.679)">
    <path id="Path_2" data-name="Path 2" class="cls-1" d="M150.885,627.659c-.672-.821-.41-1.791-1.194-2.724a11.244,11.244,0,0,1-1.492-3.843,6.459,6.459,0,0,0-.784,2.425,5.156,5.156,0,0,0-1.679-3.134c-.783-.56-.112-3.283-.112-3.283-.373.261-2.5,2.35-1.791,3.806a4.141,4.141,0,0,1-.037,3.134c-.075-.821-1.6-1.679-1.6-1.679a2.728,2.728,0,0,1-.261,3.171,8.722,8.722,0,0,0-3.731,7.313,7.387,7.387,0,1,0,12.685-5.186Zm-5.3,9.4a4.216,4.216,0,1,1,4.216-4.216A4.212,4.212,0,0,1,145.587,637.061Z" transform="translate(-119.135 -617.1)"/>
    <path id="Path_3" data-name="Path 3" class="cls-1" d="M105.717,640.4,100.9,653.682H98.927l-2.537-8.618-2.537,8.618h-1.94L87.1,640.4h3.4l2.462,8.134,2.2-8.134h2.5l2.2,8.134,2.462-8.134Z" transform="translate(-87.1 -631.707)"/>
    <path id="Path_4" data-name="Path 4" class="cls-1" d="M194.551,646.259H190.26l-4.552-6.231v6.231H182.5V628.5h3.209v10.745L190,632.977h3.768l-4.813,6.492Z" transform="translate(-146.907 -624.247)"/>
    <path id="Path_5" data-name="Path 5" class="cls-1" d="M223.109,631.347H219.9V628.4h3.209Zm0,14.849H219.9V632.914h3.209Z" transform="translate(-170.353 -624.184)"/>
    <path id="Path_6" data-name="Path 6" class="cls-1" d="M247.127,653.093h-3.209v-7.052a4.344,4.344,0,0,0-.858-2.948,2.308,2.308,0,0,0-1.791-.709,2.377,2.377,0,0,0-2.351,1.38,5.4,5.4,0,0,0-.41,2.276v7.052H235.3V639.81h2.947v1.231a4.765,4.765,0,0,1,1.194-1.007,4.974,4.974,0,0,1,2.5-.634,4.817,4.817,0,0,1,3.768,1.567,6.332,6.332,0,0,1,1.418,4.365Z" transform="translate(-180.007 -631.08)"/>
  </g>
</svg>
