<svg xmlns="http://www.w3.org/2000/svg" viewBox="-6949 -6634 123.398 42.527">
  <defs>
    <style>
      .cls-1 {
        fill: #ed1c24;
      }
    </style>
  </defs>
  <g id="Group_77" data-name="Group 77" transform="translate(-6949 -6634)">
    <path id="Path_155" data-name="Path 155" class="cls-1" d="M161.521,636.512c-1.235-1.509-.754-3.292-2.195-5.007-1.715-1.989-2.744-7.065-2.744-7.065a11.877,11.877,0,0,0-1.44,4.459,9.48,9.48,0,0,0-3.087-5.761c-1.44-1.029-.206-6.036-.206-6.036-.686.48-4.6,4.321-3.292,7s-.069,5.762-.069,5.762c-.137-1.509-2.949-3.087-2.949-3.087a5.015,5.015,0,0,1-.48,5.83c-4.458,2.744-6.859,8.369-6.859,13.444a13.581,13.581,0,1,0,23.321-9.535Zm-9.74,17.285a7.751,7.751,0,1,1,7.751-7.751A7.743,7.743,0,0,1,151.781,653.8Z" transform="translate(-103.149 -617.1)"/>
    <path id="Path_156" data-name="Path 156" class="cls-1" d="M121.328,640.4l-8.848,24.419h-3.635l-4.664-15.845-4.664,15.845H95.948L87.1,640.4h6.242l4.527,14.953,4.047-14.953h4.6l4.047,14.953,4.527-14.953Z" transform="translate(-87.1 -624.418)"/>
    <path id="Path_157" data-name="Path 157" class="cls-1" d="M204.655,661.15h-7.888L188.4,649.7V661.15h-5.9V628.5h5.9v19.755l7.888-11.524h6.928l-8.848,11.935Z" transform="translate(-117.063 -620.68)"/>
    <path id="Path_158" data-name="Path 158" class="cls-1" d="M225.8,633.819h-5.9V628.4h5.9Zm0,27.3h-5.9V636.7h5.9Z" transform="translate(-128.809 -620.649)"/>
    <path id="Path_159" data-name="Path 159" class="cls-1" d="M257.044,664.573h-5.9V651.609c0-2.469-.549-4.253-1.578-5.419a4.241,4.241,0,0,0-3.293-1.3,4.371,4.371,0,0,0-4.321,2.538,9.918,9.918,0,0,0-.754,4.184v12.964h-5.9V640.155h5.419v2.263a8.756,8.756,0,0,1,2.195-1.852,9.146,9.146,0,0,1,4.6-1.166,8.856,8.856,0,0,1,6.928,2.881c1.715,1.92,2.607,4.6,2.607,8.025v14.267Z" transform="translate(-133.646 -624.104)"/>
  </g>
</svg>
