<svg xmlns="http://www.w3.org/2000/svg" xmlns:xlink="http://www.w3.org/1999/xlink" viewBox="-6949 -441 58 62.45">
  <defs>
    <style>
      .cls-1 {
        fill: #fff;
      }

      .cls-2, .cls-4 {
        fill: #ed1c24;
      }

      .cls-3, .cls-4 {
        stroke: none;
      }

      .cls-5 {
        filter: url(#Union_1);
      }
    </style>
    <filter id="Union_1" x="-6949" y="-441" width="58" height="62.45" filterUnits="userSpaceOnUse">
      <feOffset dy="3" input="SourceAlpha"/>
      <feGaussianBlur stdDeviation="3" result="blur"/>
      <feFlood flood-opacity="0.161"/>
      <feComposite operator="in" in2="blur"/>
      <feComposite in="SourceGraphic"/>
    </filter>
  </defs>
  <g id="Group_323" data-name="Group 323" transform="translate(-7759 -967)">
    <g class="cls-5" transform="matrix(1, 0, 0, 1, 7759, 967)">
      <g id="Union_1-2" data-name="Union 1" class="cls-1" transform="translate(-10546 3168)">
        <path class="cls-3" d="M 3626.020751953125 -3559.550048828125 C 3624.952392578125 -3559.550048828125 3623.94775390625 -3559.966064453125 3623.192138671875 -3560.7216796875 L 3620.20654296875 -3563.707275390625 L 3619.913818359375 -3564.000244140625 L 3619.49951171875 -3564.000244140625 L 3616.00048828125 -3564.000244140625 C 3611.03759765625 -3564.000244140625 3607 -3568.037353515625 3607 -3572.999755859375 L 3607 -3593.000244140625 C 3607 -3597.962646484375 3611.03759765625 -3601.999755859375 3616.00048828125 -3601.999755859375 L 3636 -3601.999755859375 C 3640.962890625 -3601.999755859375 3645.00048828125 -3597.962646484375 3645.00048828125 -3593.000244140625 L 3645.00048828125 -3572.999755859375 C 3645.00048828125 -3568.037353515625 3640.962890625 -3564.000244140625 3636 -3564.000244140625 L 3632.542236328125 -3564.000244140625 L 3632.1279296875 -3564.000244140625 L 3631.835205078125 -3563.707275390625 L 3628.849365234375 -3560.7216796875 C 3628.09375 -3559.966064453125 3627.089111328125 -3559.550048828125 3626.020751953125 -3559.550048828125 Z"/>
        <path class="cls-4" d="M 3626.020751953125 -3560.550048828125 C 3626.822021484375 -3560.550048828125 3627.575439453125 -3560.862060546875 3628.142333984375 -3561.428955078125 L 3631.128173828125 -3564.41455078125 L 3631.7138671875 -3565.000244140625 L 3632.542236328125 -3565.000244140625 L 3636 -3565.000244140625 C 3640.411376953125 -3565.000244140625 3644.00048828125 -3568.5888671875 3644.00048828125 -3572.999755859375 L 3644.00048828125 -3593.000244140625 C 3644.00048828125 -3597.4111328125 3640.411376953125 -3600.999755859375 3636 -3600.999755859375 L 3616.00048828125 -3600.999755859375 C 3611.589111328125 -3600.999755859375 3608 -3597.4111328125 3608 -3593.000244140625 L 3608 -3572.999755859375 C 3608 -3568.5888671875 3611.589111328125 -3565.000244140625 3616.00048828125 -3565.000244140625 L 3619.49951171875 -3565.000244140625 L 3620.327880859375 -3565.000244140625 L 3620.913818359375 -3564.41455078125 L 3623.8994140625 -3561.428955078125 C 3624.466064453125 -3560.862060546875 3625.219482421875 -3560.550048828125 3626.020751953125 -3560.550048828125 M 3626.020751953125 -3558.550048828125 C 3624.7412109375 -3558.550048828125 3623.46142578125 -3559.038330078125 3622.485107421875 -3560.0146484375 L 3619.49951171875 -3563.000244140625 L 3616.00048828125 -3563.000244140625 C 3610.477294921875 -3563.000244140625 3606 -3567.4775390625 3606 -3572.999755859375 L 3606 -3593.000244140625 C 3606 -3598.5234375 3610.477294921875 -3602.999755859375 3616.00048828125 -3602.999755859375 L 3636 -3602.999755859375 C 3641.523193359375 -3602.999755859375 3646.00048828125 -3598.5234375 3646.00048828125 -3593.000244140625 L 3646.00048828125 -3572.999755859375 C 3646.00048828125 -3567.4775390625 3641.523193359375 -3563.000244140625 3636 -3563.000244140625 L 3632.542236328125 -3563.000244140625 L 3629.556396484375 -3560.0146484375 C 3628.580078125 -3559.038330078125 3627.300537109375 -3558.550048828125 3626.020751953125 -3558.550048828125 Z"/>
      </g>
    </g>
    <path id="Path_1447" data-name="Path 1447" class="cls-2" d="M152.885,629.323c-.777-.95-.475-2.073-1.382-3.153-1.08-1.253-1.728-4.449-1.728-4.449a7.479,7.479,0,0,0-.907,2.808,5.97,5.97,0,0,0-1.944-3.628c-.907-.648-.13-3.8-.13-3.8-.432.3-2.894,2.721-2.073,4.405a4.794,4.794,0,0,1-.043,3.628c-.086-.95-1.857-1.944-1.857-1.944a3.158,3.158,0,0,1-.3,3.671c-2.807,1.728-4.319,5.27-4.319,8.466a8.552,8.552,0,1,0,14.685-6Zm-6.133,10.884a4.881,4.881,0,1,1,4.881-4.881A4.876,4.876,0,0,1,146.752,640.208Z" transform="translate(691.8 -80.352)"/>
  </g>
</svg>
