<svg xmlns="http://www.w3.org/2000/svg" viewBox="-6716.999 -120 29.999 29.999">
  <defs>
    <style>
      .cls-1 {
        fill: #fff;
      }
    </style>
  </defs>
  <path id="Union_5" data-name="Union 5" class="cls-1" d="M7772,944a15,15,0,1,1,15,15A15,15,0,0,1,7772,944Zm1.874,0A13.125,13.125,0,1,0,7787,930.876,13.142,13.142,0,0,0,7773.875,944Zm9.625,2.015a5.224,5.224,0,0,1,.433-6.446,4.586,4.586,0,0,1,6.485,0,5.226,5.226,0,0,1,.427,6.454l-3.669,5.3Zm2.044-3.246a1.674,1.674,0,1,0,1.674-1.674A1.676,1.676,0,0,0,7785.545,942.769Z" transform="translate(-14489 -1049)"/>
</svg>
