<svg xmlns="http://www.w3.org/2000/svg" viewBox="-7520.999 -120 29.999 29.999">
  <defs>
    <style>
      .cls-1 {
        fill: #474747;
      }
    </style>
  </defs>
  <path id="Union_3" data-name="Union 3" class="cls-1" d="M7772,944a15,15,0,1,1,15,15A15,15,0,0,1,7772,944Zm1.874,0A13.125,13.125,0,1,0,7787,930.876,13.142,13.142,0,0,0,7773.875,944Zm15.561,4.95a3.046,3.046,0,0,1-.421-.09c-.156-.045-.272-.08-.346-.108s-.211-.076-.407-.149-.313-.117-.358-.133a6.569,6.569,0,0,1-1.281-.607,12.287,12.287,0,0,1-3.511-3.511,6.642,6.642,0,0,1-.607-1.281c-.014-.043-.059-.163-.131-.358s-.123-.329-.15-.405-.061-.192-.106-.347a3.109,3.109,0,0,1-.09-.421,2.679,2.679,0,0,1-.028-.384,2.841,2.841,0,0,1,.374-1.361,1.958,1.958,0,0,1,.775-.893,3.023,3.023,0,0,1,.5-.153,2.41,2.41,0,0,1,.515-.074.391.391,0,0,1,.154.023c.088.029.217.213.388.554.053.094.127.225.219.4s.178.325.257.464.153.27.225.392c.016.02.059.08.129.184a1.932,1.932,0,0,1,.156.258.486.486,0,0,1,.051.21.607.607,0,0,1-.208.366,3.707,3.707,0,0,1-.455.4,4.358,4.358,0,0,0-.452.388.55.55,0,0,0-.209.337.48.48,0,0,0,.037.164c.023.065.045.116.061.149s.053.094.1.176.078.129.084.139a7.248,7.248,0,0,0,2.992,2.992c.01,0,.055.033.139.084s.141.086.174.1a1.366,1.366,0,0,0,.151.063.507.507,0,0,0,.165.037.562.562,0,0,0,.337-.209,4.97,4.97,0,0,0,.388-.452,3.528,3.528,0,0,1,.4-.454.609.609,0,0,1,.366-.209.461.461,0,0,1,.208.053,1.926,1.926,0,0,1,.26.157l.182.127c.124.074.252.149.392.227s.293.164.464.256.3.164.4.219c.341.17.527.3.556.388a.435.435,0,0,1,.021.155,2.393,2.393,0,0,1-.072.515,2.816,2.816,0,0,1-.155.5,1.969,1.969,0,0,1-.891.775,2.837,2.837,0,0,1-1.361.372A2.729,2.729,0,0,1,7789.436,948.951Z" transform="translate(-15293 -1049)"/>
</svg>
