<svg xmlns="http://www.w3.org/2000/svg" viewBox="3372 -269 8.944 12">
  <defs>
    <style>
      .cls-1 {
        fill: #cccbc2;
      }
    </style>
  </defs>
  <path id="Union_7" data-name="Union 7" class="cls-1" d="M-3370.347,281a.6.6,0,0,1-.6-.579l-.4-8.5h7.65l-.4,8.5a.6.6,0,0,1-.6.579Zm4.094-6.967v4.856a.245.245,0,0,0,.246.245h.392a.245.245,0,0,0,.245-.245v-4.856a.245.245,0,0,0-.245-.245h-.392A.245.245,0,0,0-3366.253,274.033Zm-1.716,0v4.856a.245.245,0,0,0,.245.245h.392a.245.245,0,0,0,.246-.245v-4.856a.245.245,0,0,0-.246-.245h-.392A.245.245,0,0,0-3367.969,274.033Zm-1.717,0v4.856a.245.245,0,0,0,.246.245h.392a.245.245,0,0,0,.245-.245v-4.856a.245.245,0,0,0-.245-.245h-.392A.245.245,0,0,0-3369.687,274.033Zm-2.314-2.845V270a.379.379,0,0,1,.379-.379h2.6v-.492a.127.127,0,0,1,.127-.126h2.73a.127.127,0,0,1,.127.126v.492h2.6a.378.378,0,0,1,.379.379v1.191Z" transform="translate(6744 -538)"/>
</svg>
