<svg xmlns="http://www.w3.org/2000/svg" xmlns:xlink="http://www.w3.org/1999/xlink" viewBox="-6394 -6613 16 16">
  <defs>
    <style>
      .cls-1 {
        fill: none;
      }

      .cls-2 {
        clip-path: url(#clip-path);
      }
    </style>
    <clipPath id="clip-path">
      <rect class="cls-1" width="16" height="16"/>
    </clipPath>
  </defs>
  <g id="Repeat_Grid_1" data-name="Repeat Grid 1" class="cls-2" transform="translate(-6394 -6613)">
    <g transform="translate(-1293 -41)">
      <path id="user" d="M16,8A8,8,0,0,0,2.462,2.226a.474.474,0,1,0,.656.684,7.052,7.052,0,1,1-.153,10.027c.008-.034.017-.067.025-.1s.013-.054.02-.08.024-.08.036-.12c.007-.024.014-.048.021-.071.015-.046.031-.091.047-.136.006-.017.012-.034.018-.051q.069-.186.153-.364l.026-.052c.02-.041.04-.082.062-.123l.035-.063c.02-.036.039-.072.06-.107L3.51,11.6c.02-.033.04-.066.061-.1l.045-.068c.021-.031.041-.062.063-.093l.049-.068c.021-.029.043-.059.065-.087l.053-.067.068-.083.057-.065.07-.079.06-.064.073-.076.063-.061.076-.072.065-.059.078-.068.068-.057.081-.065.071-.054.083-.061.073-.051.086-.057.075-.048.088-.054L5.157,10l.09-.05.079-.042.092-.046L5.5,9.824,5.6,9.782l.083-.035.1-.038.084-.032.1-.034.085-.028.1-.03.086-.024.105-.026.086-.021.108-.022.085-.017.113-.018.084-.013.12-.013.079-.009.134-.009.067,0q.1,0,.2,0H8.584a4.555,4.555,0,0,1,3.528,1.666.474.474,0,1,0,.732-.6,5.5,5.5,0,0,0-2.837-1.826,3.029,3.029,0,1,0-4.012,0l-.047.012q-.1.027-.193.057l-.024.007q-.108.035-.213.073l-.065.025c-.048.018-.1.037-.144.057l-.079.034L5.1,8.964,5.018,9l-.121.06-.081.042L4.7,9.171l-.076.044L4.5,9.29l-.067.042c-.051.033-.1.066-.151.1l-.034.023q-.091.064-.179.131l-.051.04c-.041.032-.083.065-.123.1l-.064.055-.1.092-.066.061-.1.093L3.5,10.09l-.094.1-.061.065c-.032.035-.063.071-.094.106l-.053.062c-.037.043-.072.088-.108.133l-.033.041q-.068.088-.133.179l-.034.049c-.031.045-.062.09-.092.136l-.045.071c-.025.04-.05.08-.074.121l-.046.079q-.034.059-.066.119l-.043.082q-.031.06-.061.122l-.04.083c-.02.043-.039.087-.058.13l-.034.079c-.021.051-.041.1-.061.154-.008.02-.016.039-.023.059l0,.009A7.031,7.031,0,0,1,.948,8,.474.474,0,0,0,0,8a8,8,0,0,0,13.9,5.4h0A7.978,7.978,0,0,0,16,8ZM8,4.294A2.081,2.081,0,1,1,5.919,6.375,2.083,2.083,0,0,1,8,4.294Z" transform="translate(1293 41)"/>
    </g>
  </g>
</svg>
